HIERARCHY
ROOT Hips
{
	OFFSET 0.00000 0.00000 0.00000
	CHANNELS 6 Xposition Yposition Zposition Zrotation Yrotation Xrotation 
	JOINT RightUpLegDummy
	{
		OFFSET 0 0 0
		CHANNELS 3 Zrotation Yrotation Xrotation
		JOINT RightUpLeg
		{
			OFFSET -3.52197 -3.41223 0.04002
			CHANNELS 3 Zrotation Yrotation Xrotation
			JOINT RightLeg
			{
				OFFSET 0.00006 -17.42390 1.60435
				CHANNELS 3 Zrotation Yrotation Xrotation
				JOINT RightFoot
				{
					OFFSET 0.06154 -16.50078 -1.63900
					CHANNELS 3 Zrotation Yrotation Xrotation
					JOINT RightToes
					{
						OFFSET 0.00298 -1.73825 3.34613
						CHANNELS 3 Zrotation Yrotation Xrotation
						End Site
						{
							OFFSET 0.00480 -0.05416 3.85043
						}
					}
				}
			}
		}
	}
	JOINT SpineDummy
	{
		OFFSET 0 0 0
		CHANNELS 3 Zrotation Yrotation Xrotation
		JOINT Spine
		{
			OFFSET 0.00000 4.68130 0.00000
			CHANNELS 3 Zrotation Yrotation Xrotation
			JOINT Spine1
			{
				OFFSET -0.00000 10.10138 0.05002
				CHANNELS 3 Zrotation Yrotation Xrotation
				JOINT HEadDummy
				{
					OFFSET 0 0 0
					CHANNELS 3 Zrotation Yrotation Xrotation
					JOINT Head
					{
						OFFSET -0.00000 3.43865 0.00438
						CHANNELS 3 Zrotation Yrotation Xrotation
						End Site
						{
							OFFSET -0.11417 5.02924 0.98962
						}
					}
				}
				JOINT LeftShoulder1Dummy
				{
					OFFSET 0 0 0
					CHANNELS 3 Zrotation Yrotation Xrotation
					JOINT LeftShoulder1
					{
						OFFSET 3.53937 -0.14262 -0.08662
						CHANNELS 3 Zrotation Yrotation Xrotation
						JOINT LeftArm
						{
							OFFSET 4.04833 -0.00133 0.12681
							CHANNELS 3 Zrotation Yrotation Xrotation
							JOINT LeftForeArm
							{
								OFFSET 10.33880 -0.01036 -0.55515
								CHANNELS 3 Zrotation Yrotation Xrotation
								JOINT LeftHand
								{
									OFFSET 8.69677 0.07543 0.40060
									CHANNELS 3 Zrotation Yrotation Xrotation
									End Site
									{
										OFFSET 5.28377 -0.21905 0.59205
									}
								}
							}
						}
					}
				}
				JOINT RightShoulderDummy
				{
					OFFSET 0 0 0
					CHANNELS 3 Zrotation Yrotation Xrotation
					JOINT RightShoulder
					{
						OFFSET -3.53937 -0.14262 -0.08660
						CHANNELS 3 Zrotation Yrotation Xrotation
						JOINT RightArm
						{
							OFFSET -4.04833 -0.00133 0.12683
							CHANNELS 3 Zrotation Yrotation Xrotation
							JOINT RightForeArm
							{
								OFFSET -10.37987 -0.01039 -0.55511
								CHANNELS 3 Zrotation Yrotation Xrotation
								JOINT RightHand
								{
									OFFSET -8.67398 0.07538 0.40058
									CHANNELS 3 Zrotation Yrotation Xrotation
									End Site
									{
										OFFSET -5.24810 -0.21916 0.59204
									}
								}
							}
						}
					}
				}
			}
		}
	}
	JOINT LeftUpLegDummy
	{
		OFFSET 0 0 0
		CHANNELS 3 Zrotation Yrotation Xrotation
		JOINT LeftUpLeg
		{
			OFFSET 3.52197 -3.41223 0.04002
			CHANNELS 3 Zrotation Yrotation Xrotation
			JOINT LeftLeg
			{
				OFFSET -0.00012 -17.42399 1.60337
				CHANNELS 3 Zrotation Yrotation Xrotation
				JOINT LeftFoot
				{
					OFFSET -0.09972 -16.50070 -1.63802
					CHANNELS 3 Zrotation Yrotation Xrotation
					JOINT LeftToes
					{
						OFFSET -0.01575 -1.73823 3.34611
						CHANNELS 3 Zrotation Yrotation Xrotation
						End Site
						{
							OFFSET 0.03150 -0.01868 3.85031
						}
					}
				}
			}
		}
	}
}
MOTION
Frames: 19
Frame Time: 0.033333
-65.4090 39.7611 -2.0191 121.6060 82.2172 120.0890 0.0000 0.0000 0.0000 -7.9813 -1.8889 -18.8779 -15.7039 -5.2071 65.8945 5.9205 -1.2989 14.3252 0.0000 0.0000 -0.0000 0.0000 0.0000 0.0000 -12.5604 -2.1590 -4.8084 0.4451 -3.2004 19.2250 0.0000 0.0000 0.0000 -0.0308 0.7465 -7.4692 0.0000 0.0000 0.0000 -19.5358 -3.3325 1.7787 -58.3792 -17.4255 -17.5954 -12.3326 4.0673 38.2785 16.3700 -2.0041 -1.0281 0.0000 0.0000 0.0000 18.9155 1.0661 1.1637 60.6966 8.1261 14.0231 8.2787 16.2071 12.6777 -5.4407 0.5208 -0.2717 0.0000 0.0000 0.0000 -11.8747 -3.5779 -5.2650 0.4771 7.5163 13.4532 6.4523 -0.2432 -6.3382 -0.0000 -0.0000 -0.0000
-64.1040 39.7888 -2.0400 128.6240 82.3309 126.6860 0.0000 0.0000 0.0000 -7.6913 -1.6470 -21.5818 -15.1444 -5.9195 62.8998 4.7406 -0.9463 12.2651 0.0000 0.0000 -0.0000 0.0000 0.0000 0.0000 -11.9617 -2.7030 -5.2860 0.4169 -3.7281 20.1006 0.0000 0.0000 0.0000 -0.5262 0.5805 -6.7431 0.0000 0.0000 0.0000 -19.4687 -3.5878 1.8417 -57.9341 -20.9754 -15.8125 -12.9762 1.4233 34.8308 15.8365 -2.0628 -1.0009 0.0000 0.0000 0.0000 18.7137 1.0451 1.1500 60.8783 6.3709 9.8179 9.2902 14.7968 16.5796 -6.0779 0.8114 -0.3169 0.0000 0.0000 0.0000 -11.4426 -2.9355 -2.6963 0.5415 6.3507 13.7038 6.6892 -0.1404 -8.1034 -0.0000 -0.0000 -0.0000
-62.4202 39.8244 -2.0572 132.9650 82.7666 130.7580 0.0000 0.0000 0.0000 -7.4598 -1.1074 -24.1221 -13.6750 -7.3050 56.1383 4.9281 -0.8490 9.1492 0.0000 0.0000 -0.0000 0.0000 0.0000 0.0000 -11.3472 -3.1410 -5.7367 0.8852 -4.1738 20.2594 0.0000 0.0000 0.0000 -1.2803 0.8178 -6.0362 0.0000 0.0000 0.0000 -20.9470 -3.8121 1.9997 -55.2866 -24.8836 -13.2368 -13.8021 -1.7309 30.9157 15.2038 -2.4294 -1.0056 0.0000 0.0000 0.0000 19.5846 1.3660 1.2701 59.6088 3.9429 4.1671 10.5194 12.7278 22.0077 -6.5270 1.1949 -0.3589 0.0000 0.0000 0.0000 -10.6466 -2.0102 0.7791 0.3638 5.5045 12.9765 6.5752 -0.0005 -10.2691 -0.0000 -0.0000 -0.0000
-60.7807 39.7592 -2.0634 137.1480 83.0558 135.2000 0.0000 0.0000 0.0000 -7.3635 -1.1775 -25.5868 -11.4517 -8.9464 46.1463 6.9862 -1.0788 6.5356 0.0000 0.0000 -0.0000 0.0000 0.0000 0.0000 -10.5306 -3.6990 -6.7893 0.9019 -4.5320 20.8063 0.0000 0.0000 0.0000 -0.6668 1.4801 -7.3822 0.0000 0.0000 0.0000 -21.2562 -3.6765 1.9845 -54.0735 -28.5759 -8.0926 -13.8322 -5.4661 25.6502 15.0504 -2.5248 -1.0067 0.0000 0.0000 0.0000 19.7228 1.5138 1.3153 59.4021 1.9663 -1.8915 11.2977 10.5485 27.3443 -6.2621 1.1722 -0.3433 0.0000 0.0000 0.0000 -9.7887 -1.2220 3.4936 0.1445 4.6189 12.5410 6.0355 0.1471 -12.6917 -0.0000 -0.0000 -0.0000
-59.1611 39.6508 -2.0761 143.4080 82.9990 142.1500 0.0000 0.0000 0.0000 -7.1205 -1.6247 -25.8684 -8.2854 -10.2675 32.8659 7.7424 -1.1748 6.2289 0.0000 0.0000 -0.0000 0.0000 0.0000 0.0000 -9.3698 -4.4477 -8.5067 0.5495 -4.9278 21.9929 0.0000 0.0000 0.0000 -0.3077 1.5668 -8.9469 0.0000 0.0000 0.0000 -19.8259 -3.4504 1.8282 -55.1788 -31.8939 -0.1039 -12.4984 -10.1297 18.1395 15.3354 -2.4108 -1.0122 0.0000 0.0000 0.0000 18.9797 1.1328 1.1834 60.3331 0.7528 -7.8025 11.6301 8.1777 32.4381 -5.6381 0.9927 -0.3005 0.0000 0.0000 0.0000 -8.9093 -0.7500 5.7356 -0.0004 3.5283 12.0750 5.2579 0.2368 -14.5794 -0.0000 -0.0000 -0.0000
-57.5806 39.6309 -2.0855 148.7840 82.8579 148.4140 0.0000 0.0000 0.0000 -6.5290 -2.3114 -24.9664 -4.6354 -10.0943 17.2393 7.2599 -1.1260 6.5934 0.0000 0.0000 -0.0000 0.0000 0.0000 0.0000 -8.7766 -5.0058 -9.8355 1.5250 -5.5872 22.5057 0.0000 0.0000 0.0000 -1.0887 1.3071 -9.1615 0.0000 0.0000 0.0000 -19.3054 -3.5189 1.8126 -55.5321 -33.8479 10.2892 -9.6234 -15.1891 7.7588 15.5856 -2.7161 -1.0680 0.0000 0.0000 0.0000 18.8629 0.6783 1.0627 60.1313 -0.3401 -12.0482 11.6516 5.8942 36.7463 -5.1357 1.0552 -0.2751 0.0000 0.0000 0.0000 -7.9938 -0.5678 8.3513 -0.2866 2.6925 10.0857 4.0291 0.2240 -15.1107 -0.0000 -0.0000 -0.0000
-55.9837 39.5774 -2.0487 150.7220 82.7293 151.2070 0.0000 0.0000 0.0000 -5.5410 -4.3976 -23.5790 -1.5660 -7.8820 3.0123 9.5928 -1.2607 4.0513 0.0000 0.0000 -0.0000 0.0000 0.0000 0.0000 -9.2856 -5.2891 -10.3794 3.5775 -6.4827 22.1450 0.0000 0.0000 0.0000 -1.6185 1.6587 -9.2318 0.0000 0.0000 0.0000 -19.7979 -3.6246 1.8723 -54.7930 -34.5587 20.2734 -5.8162 -19.3689 -3.0465 15.5547 -3.1733 -1.1241 0.0000 0.0000 0.0000 19.2332 0.5275 1.0386 59.1475 -1.6740 -14.4126 11.4426 4.3210 39.5055 -4.6829 0.9801 -0.2480 0.0000 0.0000 0.0000 -7.1861 -0.3162 10.8485 -0.7402 1.9157 8.3058 2.3761 0.1722 -15.2478 -0.0000 -0.0000 -0.0000
-54.2930 39.4120 -1.9718 151.1570 82.7229 152.2440 0.0000 0.0000 0.0000 -5.3671 -5.4052 -22.7032 0.6439 -8.2266 -4.6870 13.9282 -1.3018 -0.8230 0.0000 0.0000 -0.0000 0.0000 0.0000 0.0000 -9.6001 -5.4999 -10.5864 4.8156 -7.1467 21.6697 0.0000 0.0000 0.0000 -1.4326 2.4076 -9.8624 0.0000 0.0000 0.0000 -19.5744 -3.5256 1.8318 -54.7497 -34.6600 26.6816 -2.6453 -22.2320 -10.4382 15.3907 -3.1413 -1.1079 0.0000 0.0000 0.0000 19.1115 0.5969 1.0517 59.0736 -3.0396 -15.8108 11.0788 3.8121 40.0243 -4.0437 0.2072 -0.1925 0.0000 0.0000 0.0000 -6.4925 0.0142 12.9308 -0.8914 1.1038 8.2718 0.8038 0.1218 -15.4616 -0.0000 -0.0000 -0.0000
-52.5049 39.2247 -1.9046 153.3350 83.2772 154.6710 0.0000 0.0000 0.0000 -4.5089 -5.2569 -22.6198 1.2214 -10.7656 -4.7534 14.3208 -1.1233 -2.4744 0.0000 0.0000 -0.0000 0.0000 0.0000 0.0000 -8.3471 -5.5618 -10.8649 4.7970 -7.3677 21.5356 0.0000 0.0000 0.0000 -1.6791 2.9053 -10.0789 0.0000 0.0000 0.0000 -19.0904 -3.6253 1.8257 -54.7428 -33.9161 28.2754 -1.1724 -24.3645 -12.6217 15.2088 -2.8910 -1.0631 0.0000 0.0000 0.0000 18.9174 0.8068 1.0978 59.3245 -4.0546 -16.8685 10.7495 3.8074 38.9853 -3.6745 -0.7757 -0.1512 0.0000 0.0000 0.0000 -5.7917 0.0773 15.0969 -0.2743 1.0000 9.1835 -1.0381 0.0545 -15.2101 -0.0000 -0.0000 -0.0000
-50.5920 39.0285 -1.8442 158.2980 84.1293 159.5970 0.0000 0.0000 0.0000 -3.0448 -4.2645 -22.6957 0.2485 -13.3818 -0.6331 9.6281 -1.0947 2.0781 0.0000 0.0000 -0.0000 0.0000 0.0000 0.0000 -6.2856 -5.6454 -11.4182 4.4271 -7.4913 21.5414 0.0000 0.0000 0.0000 -2.5663 3.5301 -9.6119 0.0000 0.0000 0.0000 -19.7785 -4.1432 2.0077 -53.5553 -31.8716 26.6647 -1.1469 -25.8145 -11.1208 15.2165 -3.0090 -1.0785 0.0000 0.0000 0.0000 19.4206 1.0982 1.1935 58.4850 -4.3325 -17.6127 10.5206 3.3404 38.5300 -4.0486 -0.9565 -0.1620 0.0000 0.0000 0.0000 -4.9403 0.0680 17.0605 0.6837 1.5183 11.2696 -4.3356 -0.0241 -14.2588 -0.0000 -0.0000 -0.0000
-48.6495 38.9182 -1.7807 170.2660 84.8255 171.4560 0.0000 0.0000 0.0000 -1.4278 -3.4619 -22.1230 -0.3619 -13.6085 3.0254 5.1410 -0.8913 8.5213 0.0000 0.0000 -0.0000 0.0000 0.0000 0.0000 -3.7916 -5.8643 -11.8888 4.1071 -7.7245 21.3014 0.0000 0.0000 0.0000 -3.1844 4.7372 -9.1776 0.0000 0.0000 0.0000 -20.8468 -4.5548 2.1949 -52.9994 -29.0692 26.3086 -1.0643 -25.7696 -10.5095 15.8573 -3.2877 -1.1618 0.0000 0.0000 0.0000 20.0874 1.2590 1.2645 57.1053 -3.5571 -18.0864 10.2249 2.2221 39.6388 -4.5217 -0.4244 -0.1955 0.0000 0.0000 0.0000 -3.2297 0.3381 17.3039 1.3498 2.2847 16.0904 -8.8381 0.1229 -10.7928 -0.0000 -0.0000 -0.0000
-46.8374 38.9519 -1.7246 -166.7540 85.0718 -165.8050 0.0000 0.0000 0.0000 0.4655 -3.0665 -20.8824 0.0036 -12.8788 5.8886 5.0833 -0.9185 10.0492 0.0000 0.0000 -0.0000 0.0000 0.0000 0.0000 -0.3625 -5.8711 -11.2283 3.7906 -7.7722 20.2829 0.0000 0.0000 0.0000 -3.3947 5.8107 -8.8848 0.0000 0.0000 0.0000 -20.8622 -4.5122 2.1850 -54.7147 -26.5878 26.9456 -1.5331 -23.7866 -10.6665 16.9008 -3.1718 -1.2243 0.0000 0.0000 0.0000 20.0186 1.2364 1.2556 56.5156 -1.8177 -18.3292 9.8492 1.3244 40.7243 -4.2557 -0.1477 -0.1927 0.0000 0.0000 0.0000 -0.3845 0.9972 14.5087 2.1956 3.0671 25.1956 -12.0364 0.9804 -2.1087 -0.0000 -0.0000 -0.0000
-45.2671 38.9562 -1.6656 -141.0670 84.3324 -140.6920 0.0000 0.0000 0.0000 2.7673 -2.6406 -19.5362 0.0078 -12.7807 9.5066 6.6754 -1.0435 6.8176 0.0000 0.0000 -0.0000 0.0000 0.0000 0.0000 3.3908 -5.5681 -8.9114 4.0516 -7.4522 18.7308 0.0000 0.0000 0.0000 -3.5973 5.8885 -8.4122 0.0000 0.0000 0.0000 -20.3717 -4.3616 2.1077 -57.0039 -24.8844 23.6534 -4.6693 -20.3789 -6.3796 17.1971 -2.6894 -1.1791 0.0000 0.0000 0.0000 19.4699 1.2557 1.2363 56.5617 0.4858 -17.9929 9.7590 1.5027 39.9597 -3.6643 -0.3408 -0.1611 0.0000 0.0000 0.0000 2.5627 0.7911 9.0597 3.6234 3.4487 37.5345 -12.4428 2.3692 10.8511 -0.0000 -0.0000 -0.0000
-43.8631 38.8635 -1.5755 -127.6750 83.1595 -128.1740 0.0000 0.0000 0.0000 4.9720 -2.2470 -18.1486 -0.8004 -12.6030 13.3828 6.0326 -0.7626 3.1801 0.0000 0.0000 -0.0000 0.0000 0.0000 0.0000 5.9368 -5.1576 -6.2897 5.1108 -6.9210 17.9165 0.0000 0.0000 0.0000 -3.4687 5.1687 -7.9088 0.0000 0.0000 0.0000 -20.4124 -4.4128 2.1246 -57.7886 -23.6455 17.0291 -9.2659 -16.4143 2.4218 16.1284 -2.2502 -1.0455 0.0000 0.0000 0.0000 19.2970 1.3950 1.2647 56.3163 3.2520 -16.6916 10.2549 2.6069 37.7818 -3.9740 -0.3617 -0.1746 0.0000 0.0000 0.0000 4.3204 -0.9327 2.8132 4.8832 3.0751 49.5049 -11.6722 3.3022 21.4155 -0.0000 -0.0000 -0.0000
-42.3727 38.9057 -1.4462 -123.7620 83.0616 -125.0820 0.0000 0.0000 0.0000 6.1546 -2.3376 -15.9718 -1.4433 -11.5182 15.5679 3.5597 -0.3764 0.8340 0.0000 0.0000 -0.0000 0.0000 0.0000 0.0000 6.7738 -4.5621 -5.0696 5.6675 -6.0863 18.1639 0.0000 0.0000 0.0000 -2.7053 4.3176 -7.4552 0.0000 0.0000 0.0000 -20.5888 -4.5136 2.1647 -57.6516 -22.1245 14.7688 -12.0469 -13.4259 8.6236 14.5308 -2.1302 -0.9237 0.0000 0.0000 0.0000 19.6630 1.4333 1.2912 55.7298 6.6427 -14.3245 11.1411 3.9397 35.8257 -5.3547 0.0743 -0.2508 0.0000 0.0000 0.0000 4.2700 -2.8343 -3.1911 5.7573 2.4601 58.8459 -10.1680 3.1583 24.6183 -0.0000 -0.0000 -0.0000
-40.7421 39.1173 -1.3164 -117.1730 84.2748 -118.9120 0.0000 0.0000 0.0000 6.2339 -2.8750 -13.1058 -1.2896 -9.4987 15.9842 2.2707 -0.1976 -1.5109 0.0000 0.0000 -0.0000 0.0000 0.0000 0.0000 7.2581 -3.5632 -4.9886 4.6458 -4.5620 18.3494 0.0000 0.0000 0.0000 -2.0043 3.5420 -6.6851 0.0000 0.0000 0.0000 -20.2855 -4.5172 2.1430 -57.7605 -19.7448 15.7738 -13.4987 -11.7053 12.6025 13.7721 -2.3821 -0.9027 0.0000 0.0000 0.0000 20.0180 1.2426 1.2572 55.3904 10.4737 -10.4523 11.9085 5.4630 33.8218 -6.6744 0.5321 -0.3343 0.0000 0.0000 0.0000 3.2536 -3.5194 -8.9320 6.0206 1.8673 64.7988 -7.7295 2.1985 22.1980 -0.0000 -0.0000 -0.0000
-39.1207 39.2668 -1.2283 -96.1812 85.5779 -98.0830 0.0000 0.0000 0.0000 5.9976 -3.4677 -10.4207 -0.7842 -6.9057 16.3819 2.5510 -0.1718 -4.3319 0.0000 0.0000 -0.0000 0.0000 0.0000 0.0000 8.5908 -2.2521 -4.6269 2.8015 -2.4722 17.7413 0.0000 0.0000 0.0000 -1.9794 2.8595 -5.7157 0.0000 0.0000 0.0000 -19.7964 -4.5464 2.1140 -58.1900 -16.5757 14.5038 -14.7366 -9.6733 17.5606 14.2032 -2.7867 -0.9788 0.0000 0.0000 0.0000 19.9493 1.0062 1.1918 55.5013 14.2199 -4.7068 12.0377 7.8838 29.9830 -7.0982 0.7511 -0.3678 0.0000 0.0000 0.0000 2.5670 -3.1145 -14.2201 5.5277 1.4111 67.3652 -5.6494 1.4040 18.8553 -0.0000 -0.0000 -0.0000
-37.5374 39.3060 -1.1571 -64.7695 85.7762 -66.9820 0.0000 0.0000 0.0000 5.7168 -4.0718 -7.8030 -0.2986 -4.1597 17.1070 2.5422 -0.1281 -6.7679 0.0000 0.0000 -0.0000 0.0000 0.0000 0.0000 9.9208 -0.9671 -3.7604 1.3616 -0.5205 16.9193 0.0000 0.0000 0.0000 -2.1635 2.2801 -5.2736 0.0000 0.0000 0.0000 -19.3878 -4.6359 2.1065 -58.6695 -13.3616 7.5612 -15.9927 -5.8994 25.3346 14.9203 -2.9967 -1.0550 0.0000 0.0000 0.0000 19.6436 0.9054 1.1526 55.7710 17.6792 3.1849 10.9806 11.5798 22.6790 -6.8946 0.8470 -0.3621 0.0000 0.0000 0.0000 2.2651 -2.6790 -18.5937 5.1980 1.3754 66.7282 -3.9687 0.9067 17.3578 -0.0000 -0.0000 -0.0000
-35.9417 39.3701 -1.0616 -40.9726 85.3358 -43.6255 0.0000 0.0000 0.0000 4.9744 -4.8319 -4.7005 0.1815 -1.7960 17.0978 1.9466 -0.0781 -8.6102 0.0000 0.0000 -0.0000 0.0000 0.0000 0.0000 10.1982 0.0607 -3.2858 0.3813 0.8878 16.6920 0.0000 0.0000 0.0000 -2.0153 1.8495 -5.6015 0.0000 0.0000 0.0000 -18.8783 -4.6255 2.0655 -59.2556 -10.5832 -3.2899 -16.3041 -0.6850 34.5486 15.0851 -2.8643 -1.0510 0.0000 0.0000 0.0000 19.4897 0.8589 1.1342 55.8553 21.1182 11.9416 8.6681 15.5390 13.0726 -6.7682 0.8993 -0.3580 0.0000 0.0000 0.0000 1.8097 -2.5819 -21.8908 5.8609 2.0267 62.9823 -2.4274 0.4878 15.6258 -0.0000 -0.0000 -0.0000
